<svg xmlns="http://www.w3.org/2000/svg" viewBox="0 0 60 100" width="240" height="400"><style>@import url("https://fonts.googleapis.com/css2?family=Cormorant+Garamond:ital,wght@0,600;1,500&amp;display=swap");</style><path d="M30 3 C45 3 53 15 53 31 C53 43 48 51 45 58 C43 64 44 71 44 79 C44 90 38 97 30 97 C22 97 16 90 16 79 C16 71 17 64 15 58 C12 51 7 43 7 31 C7 15 15 3 30 3 Z" fill="#8B4A22"/><path d="M30 3 C45 3 53 15 53 31 C53 43 48 51 45 58 C43 64 44 71 44 79 C44 90 38 97 30 97 C22 97 16 90 16 79 C16 71 17 64 15 58 C12 51 7 43 7 31 C7 15 15 3 30 3 Z" fill="none" stroke="#D7B56D" stroke-width="1.3" stroke-dasharray="2.4 2.2" stroke-linecap="round" transform="translate(4.2 7) scale(.86)"/><path d="M19.5 71 C26 68.5 34 68.5 40.5 71" fill="none" stroke="#D7B56D" stroke-width="1.3" stroke-linecap="round"/><text x="30" y="50" text-anchor="middle" font-family="Cormorant Garamond, Georgia, serif" font-size="42" font-weight="600" fill="#FBF8F3">S</text></svg>
